<svg width="107.631805" height="30.924072" viewBox="0 0 107.632 30.9241" fill="none" xmlns="http://www.w3.org/2000/svg" xmlns:xlink="http://www.w3.org/1999/xlink">
	<desc>
			Created with Pixso.
	</desc>
	<defs/>
	<path id="Shape" d="M16.9529 14.4385C16.9245 10.9476 19.5335 9.24927 19.6528 9.17017C18.1752 6.78406 15.885 6.45801 15.0802 6.43201C13.1567 6.20789 11.2909 7.70691 10.311 7.70691C9.31161 7.70691 7.8027 6.45374 6.17648 6.49048C4.08377 6.52625 2.12604 7.86829 1.05231 9.95215C-1.1636 14.2013 0.489044 20.4456 2.61206 23.8801C3.67404 25.5634 4.91498 27.4403 6.53928 27.3743C8.12836 27.3029 8.72192 26.2533 10.6396 26.2533C12.5396 26.2533 13.097 27.3743 14.7536 27.332C16.459 27.3029 17.5328 25.6423 18.5576 23.9451C19.7849 22.0182 20.2777 20.1184 20.2973 20.021C20.2581 20.0057 16.9861 18.6216 16.9529 14.4385Z" fill="#FFFFFF" fill-opacity="1.000000" fill-rule="nonzero"/>
	<path id="Shape" d="M13.9102 4.48499C14.7704 3.31799 15.3591 1.73035 15.1957 0.119141C13.9505 0.178955 12.3934 1.05334 11.4967 2.1947C10.7034 3.20056 9.99466 4.849 10.1778 6.39941C11.5764 6.51257 13.0125 5.63379 13.9102 4.48499Z" fill="#FFFFFF" fill-opacity="1.000000" fill-rule="nonzero"/>
	<path id="Shape" d="M40.0526 26.7732L37.8119 26.7732L36.5844 22.6034L32.3181 22.6034L31.1489 26.7732L28.9673 26.7732L33.1952 12.5771L35.8059 12.5771L40.0526 26.7732ZM36.2144 20.8539L35.1044 17.147C34.987 16.7683 34.766 15.8766 34.4424 14.4728L34.4029 14.4728C34.2726 15.0765 34.0645 15.9683 33.7793 17.147L32.688 20.8539L36.2144 20.8539Z" fill="#FFFFFF" fill-opacity="1.000000" fill-rule="nonzero"/>
	<path id="Shape" d="M50.904 21.5292C50.904 23.2701 50.4669 24.6462 49.5917 25.6564C48.8083 26.5557 47.8345 27.0048 46.6732 27.0048C45.4191 27.0048 44.5173 26.5215 43.9697 25.5529L43.9697 30.924L41.8661 30.924L41.8661 19.9014C41.8661 18.808 41.8394 17.6869 41.7881 16.5369L43.6382 16.5369L43.7556 18.1594L43.795 18.1594C44.4966 16.9369 45.5612 16.3257 46.9899 16.3257C48.1068 16.3257 49.0392 16.8025 49.7851 17.7572C50.5301 18.7141 50.904 19.9707 50.904 21.5292ZM48.761 21.6124C48.761 20.6161 48.5538 19.7947 48.1374 19.1472C47.6825 18.4741 47.0718 18.137 46.3061 18.137C45.7871 18.137 45.3155 18.3247 44.8942 18.6949C44.4719 19.0682 44.1956 19.5558 44.0664 20.1595C44.0013 20.4412 43.9687 20.6705 43.9687 20.8518L43.9687 22.5597C43.9687 23.3032 44.1798 23.9315 44.6021 24.4457C45.0244 24.9576 45.573 25.2147 46.2479 25.2147C47.0402 25.2147 47.6569 24.8831 48.0979 24.2249C48.5399 23.5646 48.761 22.6941 48.761 21.6124Z" fill="#FFFFFF" fill-opacity="1.000000" fill-rule="nonzero"/>
	<path id="Shape" d="M61.7939 21.5292C61.7939 23.2701 61.3568 24.6462 60.4816 25.6564C59.6973 26.5557 58.7244 27.0048 57.5621 27.0048C56.308 27.0048 55.4062 26.5215 54.8586 25.5529L54.8586 30.924L52.755 30.924L52.755 19.9014C52.755 18.808 52.7284 17.6869 52.6771 16.5369L54.5271 16.5369L54.6445 18.1594L54.684 18.1594C55.3845 16.9369 56.4491 16.3257 57.8788 16.3257C58.9947 16.3257 59.9271 16.8025 60.675 17.7572C61.419 18.7141 61.7939 19.9707 61.7939 21.5292ZM59.6499 21.6124C59.6499 20.6161 59.4417 19.7947 59.0253 19.1472C58.5705 18.4741 57.9617 18.137 57.196 18.137C56.677 18.137 56.2054 18.3247 55.7821 18.6949C55.3598 19.0682 55.0845 19.5558 54.9553 20.1595C54.8912 20.4412 54.8566 20.6705 54.8566 20.8518L54.8566 22.5597C54.8566 23.3032 55.0688 23.9315 55.4891 24.4457C55.9114 24.9567 56.46 25.2147 57.1368 25.2147C57.9301 25.2147 58.5468 24.8831 58.9868 24.2249C59.4289 23.5646 59.6499 22.6941 59.6499 21.6124Z" fill="#FFFFFF" fill-opacity="1.000000" fill-rule="nonzero"/>
	<path id="Shape" d="M73.9695 22.7913C73.9695 23.9999 73.5788 24.9824 72.8022 25.7408C71.9478 26.5686 70.7549 26.9835 69.2256 26.9835C67.8126 26.9835 66.6799 26.6891 65.8255 26.0992L66.3119 24.2036C67.2344 24.7947 68.2478 25.089 69.3509 25.089C70.1441 25.089 70.7608 24.8949 71.2009 24.5098C71.6419 24.1237 71.8649 23.6073 71.8649 22.963C71.8649 22.386 71.6804 21.9027 71.3183 21.509C70.9542 21.1166 70.3523 20.7506 69.5067 20.4147C67.2078 19.4877 66.0573 18.1318 66.0573 16.3483C66.0573 15.1833 66.4639 14.2297 67.2749 13.484C68.0859 12.7395 69.1614 12.3672 70.4993 12.3672C71.6942 12.3672 72.6898 12.5923 73.4801 13.0414L72.9522 14.8954C72.2083 14.4601 71.3686 14.2426 70.4293 14.2426C69.6873 14.2426 69.1052 14.4398 68.6888 14.8324C68.3385 15.1833 68.1609 15.6111 68.1609 16.1189C68.1609 16.679 68.3632 17.144 68.7658 17.5088C69.115 17.8448 69.7524 18.2107 70.674 18.6033C71.8047 19.0962 72.6355 19.67 73.1673 20.3292C73.7031 20.9885 73.9695 21.8109 73.9695 22.7913Z" fill="#FFFFFF" fill-opacity="1.000000" fill-rule="nonzero"/>
	<path id="Shape" d="M80.9423 18.2439L78.6236 18.2439L78.6236 23.2137C78.6236 24.4778 79.0321 25.1083 79.851 25.1083C80.227 25.1083 80.5387 25.0741 80.7854 25.0027L80.8436 26.7297C80.4292 26.8972 79.8836 26.9814 79.2077 26.9814C78.3769 26.9814 77.7277 26.7073 77.259 26.1589C76.7923 25.6107 76.5575 24.6923 76.5575 23.3994L76.5575 18.2396L75.1762 18.2396L75.1762 16.5328L76.5575 16.5328L76.5575 14.6586L78.6236 13.9844L78.6236 16.5328L80.9423 16.5328L80.9423 18.2439Z" fill="#FFFFFF" fill-opacity="1.000000" fill-rule="nonzero"/>
	<path id="Shape" d="M91.3833 21.5708C91.3833 23.1442 90.9669 24.436 90.1361 25.4462C89.2668 26.4863 88.1105 27.0048 86.6689 27.0048C85.2777 27.0048 84.1717 26.5066 83.3468 25.5112C82.522 24.5139 82.1095 23.2573 82.1095 21.7415C82.1095 20.1553 82.5358 18.856 83.3853 17.8457C84.2368 16.8345 85.3833 16.3289 86.8248 16.3289C88.2141 16.3289 89.33 16.8281 90.1746 17.8245C90.9817 18.7909 91.3833 20.0389 91.3833 21.5708ZM89.2027 21.623C89.2027 20.6854 89.0152 19.8811 88.6393 19.208C88.1983 18.3951 87.5668 17.9886 86.7489 17.9886C85.9062 17.9886 85.26 18.3951 84.8199 19.208C84.443 19.8811 84.2555 20.6992 84.2555 21.6658C84.2555 22.6045 84.443 23.4109 84.8199 24.0819C85.2748 24.8948 85.9092 25.3011 86.7311 25.3011C87.5352 25.3011 88.1657 24.8862 88.6216 24.0616C89.0083 23.3724 89.2027 22.5629 89.2027 21.623Z" fill="#FFFFFF" fill-opacity="1.000000" fill-rule="nonzero"/>
	<path id="Shape" d="M98.2239 18.537C98.0157 18.4954 97.7927 18.4741 97.5608 18.4741C96.8208 18.4741 96.2486 18.7749 95.846 19.3809C95.4967 19.9142 95.3211 20.5884 95.3211 21.4022L95.3211 26.7733L93.2175 26.7733L93.2175 19.7606C93.2175 18.5818 93.1968 17.5066 93.1563 16.538L94.9886 16.538L95.0655 18.4965L95.1237 18.4965C95.3467 17.8234 95.696 17.2804 96.1755 16.874C96.6442 16.5081 97.1504 16.3257 97.696 16.3257C97.8904 16.3257 98.066 16.3406 98.2219 16.3673L98.2239 18.537Z" fill="#FFFFFF" fill-opacity="1.000000" fill-rule="nonzero"/>
	<path id="Shape" d="M107.632 21.1709C107.632 21.5784 107.607 21.9219 107.555 22.2024L101.244 22.2024C101.268 23.2137 101.574 23.9882 102.16 24.5215C102.692 24.9973 103.379 25.2362 104.224 25.2362C105.158 25.2362 106.011 25.0762 106.777 24.7531L107.107 26.3307C106.211 26.7532 105.153 26.9633 103.933 26.9633C102.465 26.9633 101.312 26.4961 100.473 25.5637C99.6368 24.6304 99.2174 23.3759 99.2174 21.8046C99.2174 20.2621 99.6072 18.9767 100.388 17.9515C101.205 16.8571 102.309 16.3098 103.698 16.3098C105.062 16.3098 106.096 16.8571 106.797 17.9515C107.353 18.8187 107.632 19.894 107.632 21.1709ZM105.626 20.5811C105.641 19.9058 105.503 19.3243 105.217 18.8326C104.853 18.199 104.293 17.8833 103.542 17.8833C102.854 17.8833 102.294 18.1915 101.868 18.8102C101.517 19.302 101.309 19.8929 101.245 20.5789L105.626 20.5811Z" fill="#FFFFFF" fill-opacity="1.000000" fill-rule="nonzero"/>
	<path id="Shape" d="M35.4765 7.21265L34.3755 7.21265L33.7732 5.19885L31.6786 5.19885L31.1039 7.21265L30.0324 7.21265L32.1083 0.355469L33.3898 0.355469L35.4765 7.21265ZM33.5919 4.35388L33.0468 2.56323C32.9896 2.37976 32.8841 1.95312 32.7215 1.27173L32.7018 1.27173C32.6347 1.56628 32.5391 1.99402 32.3952 2.56323L31.8599 4.35388L33.5919 4.35388Z" fill="#FFFFFF" fill-opacity="1.000000" fill-rule="nonzero"/>
	<path id="Shape" d="M40.6674 2.26855L38.9069 7.21252L37.9024 7.21252L36.1991 2.26855L37.309 2.26855L38.1035 4.88306C38.2376 5.32031 38.3519 5.73755 38.4377 6.13379L38.4662 6.13379C38.5431 5.77844 38.6575 5.36121 38.8004 4.88306L39.5851 2.26855L40.6674 2.26855Z" fill="#FFFFFF" fill-opacity="1.000000" fill-rule="nonzero"/>
	<path id="Shape" d="M44.4151 7.21265L44.3382 6.64343L44.3096 6.64343C43.9942 7.10156 43.5348 7.32483 42.9513 7.32483C42.1193 7.32483 41.5259 6.70422 41.5259 5.86975C41.5259 4.64941 42.5205 4.01831 44.2426 4.01831L44.2426 3.92712C44.2426 3.27612 43.9173 2.95007 43.2766 2.95007C42.8172 2.95007 42.4151 3.07275 42.0622 3.31702L41.8522 2.59473C42.283 2.30957 42.8182 2.16699 43.4501 2.16699C44.6645 2.16699 45.2776 2.84839 45.2776 4.21228L45.2776 6.03333C45.2776 6.53223 45.2973 6.91907 45.3446 7.21375L44.4151 7.21265ZM44.2712 4.75012C43.1228 4.75012 42.5491 5.04578 42.5491 5.74707C42.5491 6.26599 42.8458 6.51965 43.2569 6.51965C43.7832 6.51965 44.2712 6.09302 44.2712 5.51331L44.2712 4.75012Z" fill="#FFFFFF" fill-opacity="1.000000" fill-rule="nonzero"/>
	<path id="Shape" d="M47.5783 1.4541C47.2342 1.4541 46.9661 1.16895 46.9661 0.792603C46.9661 0.41626 47.2431 0.141602 47.598 0.141602C47.9518 0.141602 48.2387 0.41626 48.2288 0.792603C48.2288 1.18994 47.9617 1.4541 47.5783 1.4541ZM48.1145 7.21265L47.0815 7.21265L47.0815 2.26868L48.1145 2.26868L48.1145 7.21265Z" fill="#FFFFFF" fill-opacity="1.000000" fill-rule="nonzero"/>
	<path id="Shape" d="M50.9829 7.21252L49.9499 7.21252L49.9499 0L50.9829 0L50.9829 7.21252Z" fill="#FFFFFF" fill-opacity="1.000000" fill-rule="nonzero"/>
	<path id="Shape" d="M55.3734 7.21252L55.2965 6.64319L55.2679 6.64319C54.9524 7.10132 54.4931 7.32471 53.9095 7.32471C53.0776 7.32471 52.4842 6.70398 52.4842 5.86951C52.4842 4.64929 53.4788 4.01819 55.2008 4.01819L55.2008 3.927C55.2008 3.276 54.8755 2.94995 54.2348 2.94995C53.7755 2.94995 53.3733 3.07263 53.0204 3.31689L52.8095 2.59351C53.2402 2.30835 53.7755 2.16577 54.4073 2.16577C55.6217 2.16577 56.2349 2.84717 56.2349 4.21106L56.2349 6.0321C56.2349 6.53101 56.2556 6.91785 56.3009 7.21252L55.3734 7.21252ZM55.2294 4.74988C54.0811 4.74988 53.5074 5.04553 53.5074 5.74695C53.5074 6.26587 53.8041 6.51953 54.2151 6.51953C54.7415 6.51953 55.2294 6.0929 55.2294 5.51306L55.2294 4.74988Z" fill="#FFFFFF" fill-opacity="1.000000" fill-rule="nonzero"/>
	<path id="Shape" d="M60.4202 7.32471C59.7608 7.32471 59.2738 7.02917 58.9584 6.44934L58.9377 6.44934L58.8785 7.21252L57.9983 7.21252C58.0269 6.81628 58.0367 6.36768 58.0367 5.88013L58.0367 0L59.0708 0L59.0708 2.99194L59.0905 2.99194C59.397 2.44263 59.8929 2.16797 60.573 2.16797C61.6928 2.16797 62.4774 3.18591 62.4774 4.67041C62.4774 6.20508 61.606 7.32471 60.4202 7.32471ZM60.2103 3.03076C59.6159 3.03076 59.0717 3.58008 59.0717 4.34326L59.0717 5.20813C59.0717 5.88953 59.5607 6.44934 60.1925 6.44934C60.9663 6.44934 61.4266 5.77844 61.4266 4.71021C61.4256 3.71326 60.9466 3.03076 60.2103 3.03076Z" fill="#FFFFFF" fill-opacity="1.000000" fill-rule="nonzero"/>
	<path id="Shape" d="M65.0373 7.21252L64.0053 7.21252L64.0053 0L65.0373 0L65.0373 7.21252Z" fill="#FFFFFF" fill-opacity="1.000000" fill-rule="nonzero"/>
	<path id="Shape" d="M70.6609 5.00488L67.5598 5.00488C67.5805 5.94104 68.1621 6.46936 69.0236 6.46936C69.4829 6.46936 69.9038 6.38757 70.2764 6.2356L70.4371 6.99878C69.9975 7.20215 69.481 7.30383 68.8787 7.30383C67.4238 7.30383 66.5632 6.32678 66.5632 4.81189C66.5632 3.29602 67.4445 2.15649 68.7624 2.15649C69.9482 2.15649 70.6954 3.09265 70.6954 4.50684C70.6993 4.69971 70.6905 4.8728 70.6609 5.00488ZM69.7136 4.22168C69.7136 3.4585 69.3499 2.91968 68.6894 2.91968C68.096 2.91968 67.6288 3.46899 67.5598 4.22168L69.7136 4.22168Z" fill="#FFFFFF" fill-opacity="1.000000" fill-rule="nonzero"/>
	<path id="Shape" d="M76.9222 7.32483C75.5638 7.32483 74.6836 6.24609 74.6836 4.78149C74.6836 3.25513 75.5826 2.16699 77 2.16699C78.3377 2.16699 79.2386 3.19434 79.2386 4.70081C79.2386 6.24609 78.3101 7.32483 76.9222 7.32483ZM76.9616 2.96997C76.2154 2.96997 75.7373 3.71228 75.7373 4.75012C75.7373 5.76807 76.2253 6.51025 76.9517 6.51025C77.6782 6.51025 78.1652 5.71667 78.1652 4.72913C78.1662 3.72278 77.6881 2.96997 76.9616 2.96997Z" fill="#FFFFFF" fill-opacity="1.000000" fill-rule="nonzero"/>
	<path id="Shape" d="M84.7922 7.21252L83.7601 7.21252L83.7601 4.37354C83.7601 3.49927 83.4447 3.06104 82.8227 3.06104C82.2106 3.06104 81.7887 3.62085 81.7887 4.27185L81.7887 7.21252L80.7567 7.21252L80.7567 3.68164C80.7567 3.24451 80.7458 2.77588 80.7182 2.26746L81.627 2.26746L81.6753 3.03064L81.7039 3.03064C81.9799 2.50232 82.5457 2.16577 83.1766 2.16577C84.1515 2.16577 84.7922 2.95935 84.7922 4.25098L84.7922 7.21252Z" fill="#FFFFFF" fill-opacity="1.000000" fill-rule="nonzero"/>
	<path id="Shape" d="M91.5513 3.09265L90.4147 3.09265L90.4147 5.49341C90.4147 6.10449 90.6148 6.40967 91.016 6.40967C91.1984 6.40967 91.3521 6.38867 91.4754 6.35828L91.5039 7.19275C91.3029 7.27454 91.0338 7.31543 90.7016 7.31543C89.8873 7.31543 89.4014 6.83728 89.4014 5.58557L89.4014 3.09265L88.7232 3.09265L88.7232 2.26868L89.4014 2.26868L89.4014 1.36292L90.4147 1.03687L90.4147 2.26758L91.5513 2.26758L91.5513 3.09265Z" fill="#FFFFFF" fill-opacity="1.000000" fill-rule="nonzero"/>
	<path id="Shape" d="M97.022 7.21252L95.9879 7.21252L95.9879 4.39465C95.9879 3.50989 95.6725 3.06226 95.0505 3.06226C94.5153 3.06226 94.0185 3.4491 94.0185 4.23218L94.0185 7.21252L92.9845 7.21252L92.9845 0L94.0185 0L94.0185 2.96997L94.0382 2.96997C94.3635 2.43115 94.8327 2.16589 95.435 2.16589C96.4197 2.16589 97.022 2.97937 97.022 4.27197L97.022 7.21252Z" fill="#FFFFFF" fill-opacity="1.000000" fill-rule="nonzero"/>
	<path id="Shape" d="M102.301 5.00488L99.2004 5.00488C99.2202 5.94104 99.8017 6.46936 100.663 6.46936C101.124 6.46936 101.544 6.38757 101.916 6.2356L102.078 6.99878C101.638 7.20215 101.121 7.30383 100.518 7.30383C99.0634 7.30383 98.2029 6.32678 98.2029 4.81189C98.2029 3.29602 99.0841 2.15649 100.402 2.15649C101.588 2.15649 102.335 3.09265 102.335 4.50684C102.339 4.69971 102.329 4.8728 102.301 5.00488ZM101.353 4.22168C101.353 3.4585 100.991 2.91968 100.33 2.91968C99.7357 2.91968 99.2684 3.46899 99.2004 4.22168L101.353 4.22168Z" fill="#FFFFFF" fill-opacity="1.000000" fill-rule="nonzero"/>
</svg>
