<svg width="106.212097" height="27.103516" viewBox="0 0 106.212 27.1035" fill="none" xmlns="http://www.w3.org/2000/svg" xmlns:xlink="http://www.w3.org/1999/xlink">
	<desc>
			Created with Pixso.
	</desc>
	<defs>
		<linearGradient id="paint_linear_680_15_0" x1="7.327188" y1="24.359541" x2="2.945322" y2="7.836996" gradientUnits="userSpaceOnUse">
			<stop stop-color="#00A0FF"/>
			<stop offset="0.006600" stop-color="#00A1FF"/>
			<stop offset="0.260100" stop-color="#00BEFF"/>
			<stop offset="0.512200" stop-color="#00D2FF"/>
			<stop offset="0.760400" stop-color="#00DFFF"/>
			<stop offset="1.000000" stop-color="#00E3FF"/>
		</linearGradient>
		<linearGradient id="paint_linear_680_16_0" x1="21.878092" y1="13.242435" x2="-0.305984" y2="13.242435" gradientUnits="userSpaceOnUse">
			<stop stop-color="#FFE000"/>
			<stop offset="0.408700" stop-color="#FFBD00"/>
			<stop offset="0.775400" stop-color="#FFA500"/>
			<stop offset="1.000000" stop-color="#FF9C00"/>
		</linearGradient>
		<linearGradient id="paint_linear_680_17_0" x1="13.620824" y1="14.808111" x2="-7.244327" y2="2.376192" gradientUnits="userSpaceOnUse">
			<stop stop-color="#FF3A44"/>
			<stop offset="1.000000" stop-color="#C31162"/>
		</linearGradient>
		<linearGradient id="paint_linear_680_18_0" x1="-2.450671" y1="21.245955" x2="6.866557" y2="15.698268" gradientUnits="userSpaceOnUse">
			<stop stop-color="#32A071"/>
			<stop offset="0.068500" stop-color="#2DA771"/>
			<stop offset="0.476200" stop-color="#15CF74"/>
			<stop offset="0.800900" stop-color="#06E775"/>
			<stop offset="1.000000" stop-color="#00F076"/>
		</linearGradient>
	</defs>
	<path d="M34.3316 3.63892C34.3316 4.46106 34.1024 5.11938 33.6509 5.61047C33.1317 6.1925 32.4556 6.48547 31.627 6.48547C30.8351 6.48547 30.1589 6.18762 29.6043 5.60059C29.0485 5.005 28.7711 4.27393 28.7711 3.39893C28.7711 2.52393 29.0485 1.79297 29.6043 1.20227C30.1589 0.610352 30.8351 0.3125 31.627 0.3125C32.0212 0.3125 32.3971 0.399902 32.7558 0.562378C33.1134 0.725952 33.4045 0.94751 33.6153 1.2207L33.1363 1.73999C32.7684 1.27368 32.2676 1.04346 31.627 1.04346C31.0494 1.04346 30.5486 1.26013 30.1234 1.69702C29.7028 2.13513 29.492 2.70239 29.492 3.39893C29.492 4.09546 29.7028 4.66772 30.1234 5.10583C30.5486 5.53784 31.0494 5.75928 31.627 5.75928C32.2401 5.75928 32.7558 5.53784 33.1627 5.10095C33.4308 4.81177 33.5833 4.41296 33.6234 3.90356L31.627 3.90356L31.627 3.19226L34.2903 3.19226C34.3224 3.34607 34.3316 3.495 34.3316 3.63892Z" fill="#FFFFFF" fill-opacity="1.000000" fill-rule="nonzero"/>
	<path d="M31.627 0.625C30.924 0.625 30.3297 0.885132 29.8323 1.41589C29.3355 1.94385 29.0836 2.59668 29.0836 3.39893C29.0836 4.20056 29.3347 4.85339 29.8321 5.38672C30.3295 5.91272 30.9241 6.17297 31.627 6.17297C32.3725 6.17297 32.9617 5.9137 33.4176 5.40247L33.4208 5.39893C33.8082 4.97766 34.0191 4.40076 34.0191 3.63892C34.0191 3.59363 34.0181 3.54895 34.0157 3.50476L31.9395 3.50476L31.9395 3.59106L33.9614 3.59106L33.9349 3.9281C33.891 4.48596 33.7208 4.95862 33.3918 5.31348C32.9242 5.81555 32.3244 6.07178 31.627 6.07178C30.959 6.07178 30.3798 5.81177 29.9007 5.32507L29.898 5.32227C29.413 4.81714 29.1795 4.16296 29.1795 3.39893C29.1795 2.63428 29.4134 1.98535 29.898 1.48059L29.8995 1.479C30.3802 0.984985 30.9606 0.730957 31.627 0.730957C32.2246 0.730957 32.733 0.911377 33.1353 1.28027L33.1922 1.21851C33.0389 1.07446 32.8501 0.949219 32.6263 0.84668C32.3052 0.701416 31.9733 0.625 31.627 0.625ZM29.3763 0.988525C29.9883 0.335449 30.7462 0 31.627 0C32.069 0 32.4886 0.0982666 32.8847 0.27771L32.8859 0.278198C33.282 0.459473 33.6162 0.710449 33.8627 1.02979L34.0239 1.23865L33.1177 2.22107L32.8909 1.93359C32.5878 1.54919 32.1812 1.35596 31.627 1.35596C31.1386 1.35596 30.7175 1.53491 30.3481 1.91418C29.992 2.28552 29.8045 2.771 29.8045 3.39893C29.8045 4.02734 29.9922 4.51721 30.3475 4.88806C30.7184 5.26428 31.1404 5.44678 31.627 5.44678C32.1557 5.44678 32.5876 5.25977 32.9337 4.88831C33.0863 4.72363 33.1995 4.50427 33.2631 4.21606L31.3145 4.21606L31.3145 2.87976L34.5444 2.87976L34.5963 3.12842C34.6342 3.31006 34.6441 3.48193 34.6441 3.63892C34.6441 4.52026 34.3971 5.25964 33.8825 5.82019C33.3004 6.47192 32.5378 6.79797 31.627 6.79797C30.7464 6.79797 29.9889 6.46265 29.3771 5.81519L29.3758 5.81384C28.7619 5.15601 28.4586 4.34692 28.4586 3.39893C28.4586 2.45117 28.7614 1.64209 29.3763 0.988525Z" fill="#FFFFFF" fill-opacity="1.000000" fill-rule="evenodd"/>
	<path d="M38.5564 1.17261L36.0547 1.17261L36.0547 3.04321L38.31 3.04321L38.31 3.75452L36.0547 3.75452L36.0547 5.62512L38.5564 5.62512L38.5564 6.34998L35.3464 6.34998L35.3464 0.447754L38.5564 0.447754L38.5564 1.17261Z" fill="#FFFFFF" fill-opacity="1.000000" fill-rule="nonzero"/>
	<path d="M35.0339 0.135254L38.8689 0.135254L38.8689 1.48511L36.3672 1.48511L36.3672 2.73071L38.6225 2.73071L38.6225 4.06702L36.3672 4.06702L36.3672 5.31262L38.8689 5.31262L38.8689 6.66248L35.0339 6.66248L35.0339 0.135254ZM35.6589 0.760254L35.6589 6.03748L38.2439 6.03748L38.2439 5.93762L35.7422 5.93762L35.7422 3.44202L37.9975 3.44202L37.9975 3.35571L35.7422 3.35571L35.7422 0.860107L38.2439 0.860107L38.2439 0.760254L35.6589 0.760254Z" fill="#FFFFFF" fill-opacity="1.000000" fill-rule="evenodd"/>
	<path d="M41.5391 6.34998L40.8308 6.34998L40.8308 1.17261L39.2963 1.17261L39.2963 0.447754L43.0747 0.447754L43.0747 1.17261L41.5391 1.17261L41.5391 6.34998Z" fill="#FFFFFF" fill-opacity="1.000000" fill-rule="nonzero"/>
	<path d="M38.9838 0.135254L43.3872 0.135254L43.3872 1.48511L41.8516 1.48511L41.8516 6.66248L40.5183 6.66248L40.5183 1.48511L38.9838 1.48511L38.9838 0.135254ZM39.6088 0.760254L39.6088 0.860107L41.1433 0.860107L41.1433 6.03748L41.2266 6.03748L41.2266 0.860107L42.7622 0.860107L42.7622 0.760254L39.6088 0.760254Z" fill="#FFFFFF" fill-opacity="1.000000" fill-rule="evenodd"/>
	<path d="M45.8091 6.34998L45.8091 0.447754L46.5162 0.447754L46.5162 6.34998L45.8091 6.34998Z" fill="#FFFFFF" fill-opacity="1.000000" fill-rule="nonzero"/>
	<path d="M45.4966 0.135254L46.8287 0.135254L46.8287 6.66248L45.4966 6.66248L45.4966 0.135254ZM46.1216 0.760254L46.1216 6.03748L46.2037 6.03748L46.2037 0.760254L46.1216 0.760254Z" fill="#FFFFFF" fill-opacity="1.000000" fill-rule="evenodd"/>
	<path d="M49.6501 6.34998L48.9476 6.34998L48.9476 1.17261L47.4074 1.17261L47.4074 0.447754L51.1904 0.447754L51.1904 1.17261L49.6501 1.17261L49.6501 6.34998Z" fill="#FFFFFF" fill-opacity="1.000000" fill-rule="nonzero"/>
	<path d="M47.0949 0.135254L51.5029 0.135254L51.5029 1.48511L49.9626 1.48511L49.9626 6.66248L48.6351 6.66248L48.6351 1.48511L47.0949 1.48511L47.0949 0.135254ZM47.7199 0.760254L47.7199 0.860107L49.2601 0.860107L49.2601 6.03748L49.3376 6.03748L49.3376 0.860107L50.8779 0.860107L50.8779 0.760254L47.7199 0.760254Z" fill="#FFFFFF" fill-opacity="1.000000" fill-rule="evenodd"/>
	<path d="M58.3438 5.5907C57.8018 6.18762 57.1302 6.48547 56.3292 6.48547C55.5235 6.48547 54.8519 6.18762 54.3099 5.5907C53.769 4.99512 53.4996 4.26416 53.4996 3.39893C53.4996 2.53381 53.769 1.80286 54.3099 1.20715C54.8519 0.610352 55.5235 0.3125 56.3292 0.3125C57.1256 0.3125 57.7972 0.610352 58.3393 1.21216C58.8848 1.81262 59.1541 2.5387 59.1541 3.39893C59.1541 4.26416 58.8848 4.99512 58.3438 5.5907ZM54.8336 5.09607C55.2416 5.53784 55.7378 5.75928 56.3292 5.75928C56.9159 5.75928 57.4167 5.53784 57.8201 5.09607C58.227 4.65417 58.4333 4.08691 58.4333 3.39893C58.4333 2.71106 58.227 2.14368 57.8201 1.7019C57.4167 1.26013 56.9159 1.03857 56.3292 1.03857C55.7378 1.03857 55.2416 1.26013 54.8336 1.7019C54.4268 2.14368 54.2205 2.71106 54.2205 3.39893C54.2205 4.08691 54.4268 4.65417 54.8336 5.09607Z" fill="#FFFFFF" fill-opacity="1.000000" fill-rule="nonzero"/>
	<path d="M56.3292 0.625C55.6118 0.625 55.0242 0.885498 54.5412 1.41724L54.3099 1.20715L54.5412 1.41724C54.0569 1.95056 53.8121 2.60474 53.8121 3.39893C53.8121 4.19312 54.0569 4.84729 54.5412 5.38062C55.0242 5.91248 55.6118 6.17297 56.3292 6.17297C57.0416 6.17297 57.6294 5.9126 58.1125 5.38062C58.5968 4.84729 58.8416 4.19312 58.8416 3.39893C58.8416 2.61084 58.5976 1.96118 58.1079 1.42224L58.1071 1.42126C57.6239 0.884888 57.0366 0.625 56.3292 0.625ZM54.0785 0.99707C54.6797 0.335205 55.4352 0 56.3292 0C57.2145 0 57.9702 0.335571 58.571 1.00244C59.1721 1.66455 59.4666 2.46692 59.4666 3.39893C59.4666 4.33508 59.1727 5.14282 58.5752 5.80078L58.5752 5.80078C57.9742 6.46252 57.2188 6.79797 56.3292 6.79797C55.4352 6.79797 54.6797 6.46277 54.0785 5.80078L54.0785 5.80078C53.481 5.14282 53.1871 4.33508 53.1871 3.39893C53.1871 2.46289 53.481 1.65503 54.0785 0.99707L54.0785 0.99707ZM54.604 1.48987C55.0695 0.98584 55.6481 0.726074 56.3292 0.726074C57.0047 0.726074 57.5887 0.985229 58.0504 1.49072C58.5174 1.99805 58.7458 2.64429 58.7458 3.39893C58.7458 4.15356 58.5174 4.7998 58.0505 5.30713C57.5888 5.81262 57.0047 6.07178 56.3292 6.07178C55.6481 6.07178 55.0695 5.81201 54.604 5.30798L54.6037 5.30774C54.1364 4.80029 53.908 4.15381 53.908 3.39893C53.908 2.64404 54.1364 1.99768 54.6037 1.49023L54.604 1.48987ZM55.0633 1.91382C54.717 2.28992 54.533 2.77808 54.533 3.39893C54.533 4.0199 54.717 4.50806 55.0634 4.88428C55.4138 5.26367 55.8276 5.44678 56.3292 5.44678C56.8269 5.44678 57.2444 5.26318 57.5894 4.88525L57.5902 4.88428C57.9366 4.50818 58.1208 4.0199 58.1208 3.39893C58.1208 2.77795 57.9366 2.28979 57.5902 1.91357L57.5894 1.9126C57.2444 1.53479 56.8269 1.35107 56.3292 1.35107C55.8275 1.35107 55.4138 1.5343 55.0633 1.91382Z" fill="#FFFFFF" fill-opacity="1.000000" fill-rule="evenodd"/>
	<path d="M60.1473 6.34998L60.1473 0.447754L61.0069 0.447754L63.6794 5.03809L63.7103 5.03809L63.6794 3.90344L63.6794 0.447754L64.3865 0.447754L64.3865 6.34998L63.6484 6.34998L60.8499 1.5332L60.8189 1.5332L60.8499 2.67273L60.8499 6.34998L60.1473 6.34998Z" fill="#FFFFFF" fill-opacity="1.000000" fill-rule="nonzero"/>
	<path d="M59.8348 0.135254L61.1865 0.135254L63.3669 3.88025L63.3669 0.135254L64.699 0.135254L64.699 6.66248L63.4686 6.66248L61.1624 2.69312L61.1624 6.66248L59.8348 6.66248L59.8348 0.135254ZM60.4598 0.760254L60.4598 6.03748L60.5374 6.03748L60.5374 2.677L60.4978 1.2207L61.0297 1.2207L63.8283 6.03748L64.074 6.03748L64.074 0.760254L63.9919 0.760254L63.9919 3.89917L64.0314 5.35059L63.4997 5.35059L60.8272 0.760254L60.4598 0.760254Z" fill="#FFFFFF" fill-opacity="1.000000" fill-rule="evenodd"/>
	<path d="M53.3257 14.9694C51.1723 14.9694 49.4131 16.7291 49.4131 19.1572C49.4131 21.5657 51.1723 23.3439 53.3257 23.3439C55.4836 23.3439 57.2427 21.5657 57.2427 19.1572C57.2427 16.7291 55.4836 14.9694 53.3257 14.9694ZM53.3257 21.6948C52.1441 21.6948 51.1276 20.6476 51.1276 19.1572C51.1276 17.6472 52.1441 16.6184 53.3257 16.6184C54.5072 16.6184 55.5283 17.6472 55.5283 19.1572C55.5283 20.6476 54.5072 21.6948 53.3257 21.6948ZM44.789 14.9694C42.631 14.9694 40.8765 16.7291 40.8765 19.1572C40.8765 21.5657 42.631 23.3439 44.789 23.3439C46.9458 23.3439 48.7015 21.5657 48.7015 19.1572C48.7015 16.7291 46.9458 14.9694 44.789 14.9694ZM44.789 21.6948C43.6063 21.6948 42.5863 20.6476 42.5863 19.1572C42.5863 17.6472 43.6063 16.6184 44.789 16.6184C45.9705 16.6184 46.987 17.6472 46.987 19.1572C46.987 20.6476 45.9705 21.6948 44.789 21.6948ZM34.6306 16.2529L34.6306 18.0325L38.5879 18.0325C38.4721 19.0267 38.1627 19.7578 37.6882 20.2673C37.1106 20.8826 36.211 21.5657 34.6306 21.5657C32.1954 21.5657 30.2884 19.4551 30.2884 16.84C30.2884 14.2249 32.1954 12.1143 34.6306 12.1143C35.9474 12.1143 36.9055 12.6669 37.6126 13.3831L38.7804 12.129C37.7914 11.115 36.4757 10.3359 34.6306 10.3359C31.2912 10.3359 28.4846 13.2538 28.4846 16.84C28.4846 20.426 31.2912 23.3439 34.6306 23.3439C36.4356 23.3439 37.7914 22.7089 38.8572 21.5176C39.9493 20.3448 40.2897 18.6958 40.2897 17.3641C40.2897 16.9507 40.2576 16.5704 40.2003 16.2529L34.6306 16.2529ZM76.1693 17.6324C75.8472 16.6959 74.8536 14.9694 72.8297 14.9694C70.8242 14.9694 69.1544 16.6664 69.1544 19.1572C69.1544 21.5028 70.807 23.3439 73.0223 23.3439C74.8135 23.3439 75.8472 22.1711 76.2724 21.488L74.943 20.5367C74.4995 21.2334 73.8955 21.6948 73.0223 21.6948C72.1547 21.6948 71.5324 21.2678 71.1336 20.426L76.3492 18.1088L76.1693 17.6324ZM70.8517 19.0267C70.807 17.4122 72.0195 16.5852 72.8882 16.5852C73.5689 16.5852 74.1465 16.9507 74.3391 17.4738L70.8517 19.0267ZM66.6126 23.0891L68.327 23.0891L68.327 10.7827L66.6126 10.7827L66.6126 23.0891ZM63.8048 15.9022L63.7476 15.9022C63.3625 15.4124 62.6279 14.9694 61.6973 14.9694C59.7445 14.9694 57.959 16.8104 57.959 19.1708C57.959 21.5176 59.7445 23.3439 61.6973 23.3439C62.6279 23.3439 63.3625 22.8972 63.7476 22.3926L63.8048 22.3926L63.8048 22.9932C63.8048 24.5942 63.0084 25.4545 61.7237 25.4545C60.6762 25.4545 60.0264 24.6422 59.7583 23.9592L58.2673 24.6274C58.6971 25.7375 59.8351 27.1035 61.7237 27.1035C63.7338 27.1035 65.4299 25.8335 65.4299 22.7433L65.4299 15.2241L63.8048 15.2241L63.8048 15.9022ZM61.844 21.6948C60.6625 21.6948 59.6735 20.6328 59.6735 19.1708C59.6735 17.6952 60.6625 16.6184 61.844 16.6184C63.0084 16.6184 63.9263 17.6952 63.9263 19.1708C63.9263 20.6328 63.0084 21.6948 61.844 21.6948ZM84.196 10.7827L80.0955 10.7827L80.0955 23.0891L81.8054 23.0891L81.8054 18.4263L84.196 18.4263C86.0949 18.4263 87.9572 16.9507 87.9572 14.6039C87.9572 12.2583 86.0903 10.7827 84.196 10.7827ZM84.2407 16.7144L81.8054 16.7144L81.8054 12.4945L84.2407 12.4945C85.5173 12.4945 86.2462 13.6329 86.2462 14.6039C86.2462 15.5564 85.5173 16.7144 84.2407 16.7144ZM94.8104 14.9459C93.575 14.9459 92.2903 15.5317 91.762 16.8301L93.2793 17.5131C93.6059 16.8301 94.2064 16.6085 94.8413 16.6085C95.7283 16.6085 96.628 17.1808 96.6417 18.1912L96.6417 18.3204C96.3323 18.1284 95.6699 17.8441 94.8551 17.8441C93.2209 17.8441 91.5557 18.8102 91.5557 20.613C91.5557 22.2622 92.8942 23.3242 94.399 23.3242C95.5496 23.3242 96.1844 22.7667 96.5833 22.1182L96.6417 22.1182L96.6417 23.0695L98.2931 23.0695L98.2931 18.3488C98.2931 16.1667 96.7758 14.9459 94.8104 14.9459ZM94.6041 21.6899C94.0448 21.6899 93.2655 21.3921 93.2655 20.6476C93.2655 19.6951 94.2374 19.3296 95.0786 19.3296C95.8315 19.3296 96.1844 19.5079 96.6417 19.743C96.5076 20.8826 95.5942 21.6899 94.6041 21.6899ZM104.31 15.2155L102.344 20.5503L102.286 20.5503L100.254 15.2155L98.41 15.2155L101.463 22.6708L99.7211 26.8192L101.508 26.8192L106.212 15.2155L104.31 15.2155ZM88.8969 23.0891L90.6114 23.0891L90.6114 10.7827L88.8969 10.7827L88.8969 23.0891Z" fill="#FFFFFF" fill-opacity="1.000000" fill-rule="nonzero"/>
	<path d="M0.425171 0.975708C0.155853 1.27844 0 1.74988 0 2.36023L0 24.1328C0 24.7432 0.155853 25.2146 0.425171 25.5173L0.491638 25.5837L11.8533 13.3881L11.8533 13.1001L0.491638 0.904419L0.425171 0.975708Z" fill="url(#paint_linear_680_15_0)" fill-opacity="1.000000" fill-rule="nonzero"/>
	<path d="M15.6363 17.4551L11.8533 13.3878L11.8533 13.0999L15.6409 9.03259L15.7257 9.08545L20.2112 11.826C21.4913 12.6039 21.4913 13.8838 20.2112 14.6664L15.7257 17.4021L15.6363 17.4551Z" fill="url(#paint_linear_680_16_0)" fill-opacity="1.000000" fill-rule="nonzero"/>
	<path d="M15.7265 17.4022L11.8541 13.2438L0.426025 25.5171C0.851196 25.9969 1.54453 26.0548 2.33301 25.5748L15.7265 17.4022Z" fill="url(#paint_linear_680_17_0)" fill-opacity="1.000000" fill-rule="nonzero"/>
	<path d="M15.7265 9.08582L2.33301 0.913086C1.54453 0.437988 0.851196 0.49585 0.426025 0.97583L11.8541 13.2441L15.7265 9.08582Z" fill="url(#paint_linear_680_18_0)" fill-opacity="1.000000" fill-rule="nonzero"/>
</svg>
